<svg xmlns="http://www.w3.org/2000/svg" viewBox="0 0 32.11 44.09"><defs><style>.cls-1{fill:#fff;}</style></defs><title>bin</title><g id="圖層_2" data-name="圖層 2"><g id="圖層_1-2" data-name="圖層 1"><path class="cls-1" d="M21.57,8.25a1.37,1.37,0,0,1-1.34-1.66l.51-2.35-6.66-1.5-.51,2.33a1.37,1.37,0,0,1-2.67-.58l.58-2.65a2.26,2.26,0,0,1,1-1.42A2.91,2.91,0,0,1,14.68.08l6.67,1.5a2.56,2.56,0,0,1,2.14,2.93L22.9,7.18A1.37,1.37,0,0,1,21.57,8.25Z"/><path class="cls-1" d="M30.75,11.36a1.38,1.38,0,0,1-.29,0L1.08,4.9a1.37,1.37,0,1,1,.58-2.67L31,8.65a1.37,1.37,0,0,1-.29,2.71Z"/><path class="cls-1" d="M22.11,44.09H9A8,8,0,0,1,1,36.31L.28,15.53a3.51,3.51,0,0,1,3.51-3.63H27.37a3.51,3.51,0,0,1,3.51,3.63l-.71,20.77A8,8,0,0,1,22.11,44.09ZM3.78,14.64a.77.77,0,0,0-.77.8l.71,20.79v0A5.21,5.21,0,0,0,9,41.35H22.11a5.21,5.21,0,0,0,5.32-5.07v0l.71-20.79a.77.77,0,0,0-.77-.8Z"/><path class="cls-1" d="M10.54,35.51a1,1,0,0,1-1-1V19.07a1,1,0,1,1,2,0V34.53A1,1,0,0,1,10.54,35.51Z"/><path class="cls-1" d="M19.83,35.83a1,1,0,0,1-1-1V19.07a1,1,0,0,1,2,0V34.85A1,1,0,0,1,19.83,35.83Z"/></g></g></svg>