<svg xmlns="http://www.w3.org/2000/svg" viewBox="0 0 48.85 48.85"><defs><style>.cls-1{fill:#fdfdfe;}</style></defs><title>clear</title><g id="圖層_2" data-name="圖層 2"><g id="圖層_1-2" data-name="圖層 1"><path class="cls-1" d="M24.42,48.85A24.42,24.42,0,1,1,48.85,24.42,24.45,24.45,0,0,1,24.42,48.85ZM24.42,4A20.44,20.44,0,1,0,44.86,24.42,20.46,20.46,0,0,0,24.42,4Z"/><path class="cls-1" d="M16.51,34.9a2.56,2.56,0,0,1-1.81-4.37L30.53,14.7a2.56,2.56,0,0,1,3.62,3.62L18.32,34.15A2.56,2.56,0,0,1,16.51,34.9Z"/><path class="cls-1" d="M32.34,34.9a2.56,2.56,0,0,1-1.81-.75L14.7,18.32a2.56,2.56,0,1,1,3.62-3.62L34.15,30.53a2.56,2.56,0,0,1-1.81,4.37Z"/></g></g></svg>