<svg xmlns="http://www.w3.org/2000/svg" viewBox="0 0 48.75 42.32"><defs><style>.cls-1{fill:#fff;}</style></defs><title>hide</title><g id="圖層_2" data-name="圖層 2"><g id="圖層_1-2" data-name="圖層 1"><path class="cls-1" d="M48.11,19.49A28.09,28.09,0,0,0,38,11.23l-16.4,16.4a6.79,6.79,0,0,0,9.52-6.22,1.76,1.76,0,0,1,3.52,0A10.3,10.3,0,0,1,19,30.23l-3.3,3.3a31.33,31.33,0,0,0,8.64,1.21A29.56,29.56,0,0,0,48.11,23.34,3.2,3.2,0,0,0,48.11,19.49Z"/><path class="cls-1" d="M42.27.6a2.06,2.06,0,0,0-2.91,0L31.14,8.82a31.38,31.38,0,0,0-6.77-.74A29.56,29.56,0,0,0,.64,19.49a3.2,3.2,0,0,0,0,3.84,27.83,27.83,0,0,0,8.54,7.45l-8,8a2.06,2.06,0,0,0,2.91,2.91L42.27,3.51A2.06,2.06,0,0,0,42.27.6ZM14.06,21.41a10.31,10.31,0,0,1,14.09-9.6l-2.87,2.87a6.75,6.75,0,0,0-7.7,6.73,6.74,6.74,0,0,0,.07.9l-2.87,2.87A10.19,10.19,0,0,1,14.06,21.41Z"/></g></g></svg>