<svg xmlns="http://www.w3.org/2000/svg" viewBox="0 0 42.33 44.68"><defs><style>.cls-1{fill:#fffefe;}</style></defs><title>redo</title><g id="圖層_2" data-name="圖層 2"><g id="圖層_1-2" data-name="圖層 1"><path class="cls-1" d="M21.35,44.68A21.35,21.35,0,0,1,6.2,8.28,21.21,21.21,0,0,1,21.28,2h.08A21.34,21.34,0,0,1,39,11.32,2.39,2.39,0,0,1,35.07,14,16.58,16.58,0,0,0,21.35,6.75h-.06a16.58,16.58,0,0,0,.06,33.16h.06a16.63,16.63,0,0,0,16.2-13.29,2.39,2.39,0,1,1,4.68.94A21.42,21.42,0,0,1,21.43,44.68Z"/><path class="cls-1" d="M38,16.57a2.39,2.39,0,0,1-2.39-2.38l0-11.79A2.39,2.39,0,0,1,38,0h0a2.39,2.39,0,0,1,2.39,2.38l0,11.79A2.39,2.39,0,0,1,38,16.57Z"/><path class="cls-1" d="M26.23,16.61a2.39,2.39,0,0,1,0-4.77l11.79,0h0a2.39,2.39,0,0,1,0,4.77l-11.79,0Z"/></g></g></svg>