<svg xmlns="http://www.w3.org/2000/svg" viewBox="0 0 48.75 26.66"><defs><style>.cls-1{fill:#fff;}</style></defs><title>visible</title><g id="圖層_2" data-name="圖層 2"><g id="圖層_1-2" data-name="圖層 1"><path class="cls-1" d="M48.11,11.41A29.56,29.56,0,0,0,24.37,0,29.56,29.56,0,0,0,.64,11.41a3.2,3.2,0,0,0,0,3.84A29.56,29.56,0,0,0,24.37,26.66,29.56,29.56,0,0,0,48.11,15.25,3.2,3.2,0,0,0,48.11,11.41ZM24.37,23.65A10.32,10.32,0,1,1,31.67,6a1.76,1.76,0,0,1-2.49,2.49,6.79,6.79,0,1,0,2,4.8,1.76,1.76,0,1,1,3.52,0A10.33,10.33,0,0,1,24.37,23.65Z"/></g></g></svg>