<svg xmlns="http://www.w3.org/2000/svg" viewBox="0 0 42.56 39.12"><defs><style>.cls-1{fill:#fff;}</style></defs><title>write</title><g id="圖層_2" data-name="圖層 2"><g id="圖層_1-2" data-name="圖層 1"><path class="cls-1" d="M23.89,11a1.35,1.35,0,0,0-1.35-1.35H8.63a1.35,1.35,0,0,0,0,2.7h13.9A1.35,1.35,0,0,0,23.89,11Z"/><path class="cls-1" d="M8.95,27.15a1.35,1.35,0,0,0,0,2.7H16.2a1.35,1.35,0,0,0,0-2.7Z"/><path class="cls-1" d="M41.91,16.38l-4.64-4.61a2.23,2.23,0,0,0-3.14,0l-2.72,2.7h0l-2.7,2.68h0l-2.18,2.17q-.68.67-1.28,1.4l7.65,7.6q.74-.6,1.41-1.27l7.6-7.56A2.2,2.2,0,0,0,41.91,16.38Z"/><path class="cls-1" d="M21.31,28.69a3.42,3.42,0,0,0,.5,3.05,3.47,3.47,0,0,0,3.07.5,19.53,19.53,0,0,0,6.76-3L24.31,22A19.29,19.29,0,0,0,21.31,28.69Z"/><path class="cls-1" d="M27.5,36.42H7a4.3,4.3,0,0,1-4.3-4.3V7A4.3,4.3,0,0,1,7,2.7H24.41A4.3,4.3,0,0,1,28.71,7v8l2.7-2.68V7a7,7,0,0,0-7-7H7A7,7,0,0,0,0,7V32.12a7,7,0,0,0,7,7H27.5a1.35,1.35,0,1,0,0-2.7Z"/><path class="cls-1" d="M20.41,19.52a1.35,1.35,0,0,0-1.35-1.35H8.63a1.35,1.35,0,0,0,0,2.7H19.06A1.35,1.35,0,0,0,20.41,19.52Z"/></g></g></svg>