<svg xmlns="http://www.w3.org/2000/svg" viewBox="0 0 50 48.89"><defs><style>.cls-1{fill:#fff;}</style></defs><title>write_dots</title><g id="圖層_2" data-name="圖層 2"><g id="圖層_1-2" data-name="圖層 1"><path class="cls-1" d="M15.39,20.35A37.36,37.36,0,0,0,9.24,33.9c-.44,1.92-.43,4.5,1,5.89s4,1.4,5.89,1a37.36,37.36,0,0,0,13.55-6.15Z"/><path class="cls-1" d="M8.2,41.8a7.07,7.07,0,0,1-1.91-4,5.56,5.56,0,1,0,4.82,5.64A6.75,6.75,0,0,1,8.2,41.8Z"/><path class="cls-1" d="M48.75,10.15,39.85,1.25a4.26,4.26,0,0,0-6,0L19.24,15.83q-1.3,1.3-2.45,2.71L31.46,33.21q1.41-1.16,2.71-2.45L48.75,16.18A4.26,4.26,0,0,0,48.75,10.15Z"/></g></g></svg>